<svg xmlns="http://www.w3.org/2000/svg" width="55" height="51" viewBox="0 0 55 51">
  <defs>
    <style>
      .cls-1 {
        fill: #a7e571;
        fill-rule: evenodd;
      }
    </style>
  </defs>
  <path class="cls-1" d="M1031.34,5277.8a55.328,55.328,0,0,0,11.71-.71,1.288,1.288,0,0,0,.95-1.27c-0.34-4.45-.38-8.91-0.38-13.37a1.314,1.314,0,0,0-1.65-1.27c-4.17,1.31-7.97.68-7-4.48,0.55-2.87,3.29-7.6,6.5-4.81,0.52,0.45,1.43-.14,1-0.78a2.372,2.372,0,0,0-.23-0.3,1.017,1.017,0,0,0,.4-0.23c1.15-1.19,1.01-3.15,1.06-4.71,0.08-2.34-.07-4.68-0.09-7.02a1.319,1.319,0,0,0-1.64-1.26c-2.3.38-4.63,0.72-6.94,1.18a0.517,0.517,0,0,0-.4.08,40.412,40.412,0,0,0-4.64,1.18c2.03-5.27-1.24-12.25-7.12-12.99-3.42-.42-6.33,2.32-7.39,5.33-0.5,1.4-1.27,5.13-.15,6.85a107.107,107.107,0,0,0-11.57-1.26,1.3,1.3,0,0,0-1.28,1.28,37.559,37.559,0,0,0,.12,6c0.08,1.18-.11,2.6-0.08,3.9a5.853,5.853,0,0,0-1.48-.56c-3.259-.59-7.442-0.15-9.878,2.33a8.133,8.133,0,0,0-.18,10.83c1.871,2.34,6.157,3.93,9.268,2.96-0.678,4.25-1.566,11,2.31,12.28,2.5,0.82,5.66.36,8.23,0.25,0.83-.04,2.88.09,3.71-0.6a0.829,0.829,0,0,0,.87-1.23c-1.3-1.74-3.13-3.75-1.89-6.02a3.4,3.4,0,0,1,.4-0.59,0.933,0.933,0,0,0,.87-0.85,9.918,9.918,0,0,1,3.95-1.69c1.67-.35,3.91-0.34,5.18.96,1.82,1.86-.35,5.5-1.37,7.17a1.292,1.292,0,0,0,1.8,1.73,0.754,0.754,0,0,0,.06.13C1025.79,5278,1029.37,5277.72,1031.34,5277.8Zm9.68-13.69c0.01,1.3.02,2.6,0.04,3.9-1.93-1.44-3.83-2.92-5.69-4.42A9.575,9.575,0,0,0,1041.02,5264.11Zm0.1,6.46c0.02,0.65.03,1.3,0.06,1.94,0.08,2.03,1.13,2.1-.86,2.33-0.36.04-.72,0.07-1.08,0.1a0.794,0.794,0,0,0-.04-0.76c-8.14-13.22-22.44-21.74-32.42-33.57l3.04,0.12a0.644,0.644,0,0,0,.13.52A151.554,151.554,0,0,0,1041.12,5270.57Zm-9.22-13.62a0.877,0.877,0,0,0,.32.26,6.172,6.172,0,0,0,.88,4.51,235.49,235.49,0,0,1-21.93-20.96c1.26,0.04,2.53.06,3.8,0a0.405,0.405,0,0,0,.05.09C1020.05,5246.79,1027.38,5250.47,1031.9,5256.95Zm9.06-10.03a12.479,12.479,0,0,0-.11,2.5,3.491,3.491,0,0,0-.98-0.43,0.59,0.59,0,0,0-.04-0.68,44.044,44.044,0,0,0-4.07-4.01c-0.95-.96-1.92-1.88-2.92-2.78,0.97-.15,1.94-0.29,2.92-0.43,0.71,0.86,1.45,1.7,2.19,2.53,0.55,0.62,1.1,1.25,1.62,1.9A2.788,2.788,0,0,0,1040.96,5246.92Zm-5.19,3.45a0.476,0.476,0,0,0-.08-0.18,63.723,63.723,0,0,0-7.14-7.88,0.746,0.746,0,0,0,.15-0.09c1-.2,2-0.37,3-0.53,1.08,1.15,2.12,2.34,3.14,3.54a23.415,23.415,0,0,0,3.47,3.71A5.537,5.537,0,0,0,1035.77,5250.37Zm5.33-5.68c-0.48-.58-1.11-1.11-1.49-1.51-0.76-.79-1.54-1.54-2.33-2.3,1.26-.18,2.51-0.35,3.76-0.53C1041.07,5241.79,1041.1,5243.24,1041.1,5244.69Zm-17.78-14.92a5.619,5.619,0,0,1,4.22,4.31c-0.92-.5-1.91-0.95-2.77-1.46-1.44-.85-2.87-1.68-4.38-2.39A4.408,4.408,0,0,1,1023.32,5229.77Zm-3.77,1.01c1.6,0.87,3.13,1.84,4.64,2.84a21.019,21.019,0,0,0,3.66,2.25,8.9,8.9,0,0,1-.06,1.55c-0.78-.67-1.61-1.25-2.05-1.63a35.485,35.485,0,0,0-6.4-4.81C1019.41,5230.92,1019.48,5230.85,1019.55,5230.78Zm-2.33,9.26a1.176,1.176,0,0,0,.69-1.3,14.042,14.042,0,0,1-.56-2.32,11.038,11.038,0,0,1,.63-3.36,4.785,4.785,0,0,1,.59-1.2c0.26,0.2.51,0.41,0.78,0.6,1.32,1,2.58,2.1,3.85,3.18,1.41,1.2,2.67,2.71,4.04,4.02a5.3,5.3,0,0,1-.45.89,1.424,1.424,0,0,0-.05.16,37.571,37.571,0,0,0-8.3-5.47,0.538,0.538,0,0,0-.54.93c6.4,3.85,11.74,9.27,16.38,15.12a0.693,0.693,0,0,0,.42.25l-0.12.18c-4.37-5.5-10.24-9.87-15.75-14.12-0.49-.38-1.08.43-0.65,0.84,5.17,4.95,10.74,9.25,15.31,14.83,0.02,0.02.03,0.02,0.05,0.04a12.637,12.637,0,0,0-.69,1.51c-1.19-2.25-4.17-4.22-5.77-5.56-3.44-2.9-6.94-5.75-10.42-8.61A0.619,0.619,0,0,0,1017.22,5240.04Zm-11.94,9.65a13.314,13.314,0,0,0,.03-2.82,138.347,138.347,0,0,0,15.75,16.64,12.734,12.734,0,0,0-2.85.19,11.151,11.151,0,0,0-1.9.51,0.636,0.636,0,0,0,0-.47c-1.07-2.08-3.4-3.86-4.91-5.67C1009.18,5255.41,1007.24,5252.54,1005.28,5249.69Zm-1.91,1.86a0.939,0.939,0,0,0,1.1-.18,3.009,3.009,0,0,0,.36-0.44,82.536,82.536,0,0,0,5.45,8.02c1.4,1.86,3.11,4.57,5.29,5.55a10.625,10.625,0,0,0-2.46,1.49c-4.4-4.45-7.52-9.82-11.25-14.83a3.262,3.262,0,0,0,.53.09A0.647,0.647,0,0,0,1003.37,5251.55Zm-5.627,10.72c-0.788-.93-1.9-1.77-2.645-2.58-0.8-.87-2.756-2.61-2.66-3.93a0.366,0.366,0,0,0-.716-0.1c-0.3,1.43.8,2.84,1.608,3.9,0.523,0.69,1.086,1.35,1.657,2a7.46,7.46,0,0,1-1.418-.89c-2.474-2.01-2.442-5.09-.818-7.61a3.311,3.311,0,0,1,.484-0.55c1.168,1.8,2.332,3.6,3.469,5.42a18.229,18.229,0,0,0,2.888,4.11,9.449,9.449,0,0,1-1.775.24C997.792,5262.28,997.768,5262.27,997.743,5262.27Zm4.327,8.35a24.88,24.88,0,0,1,2.94,2.78c0.42,0.44.83,0.95,1.27,1.44a12.614,12.614,0,0,1-3.06-.3C1002.43,5274.36,1002.14,5272.68,1002.07,5270.62Zm8.88,1.6a7.1,7.1,0,0,0,1.19,2.32c-1.23,0-2.48.12-3.72,0.21-0.89-.94-1.96-1.77-2.85-2.63a21.078,21.078,0,0,0-3.52-2.81c0-1.45.08-2.97,0.14-4.23a0.137,0.137,0,0,0,.05.08c2.54,2.88,4.35,6.34,6.88,9.18a0.685,0.685,0,0,0,1.07-.83,44.676,44.676,0,0,0-7.25-9.06,0.477,0.477,0,0,0-.73.06c0.02-.37.04-0.73,0.04-1.03a1.062,1.062,0,0,0-.1-1.38,0.763,0.763,0,0,0-.99-0.38c-0.89-1.8-2.55-3.39-3.7-5.07-1.1-1.6-2.162-3.25-3.355-4.8a6.9,6.9,0,0,1,2.087-.7C1000.52,5258.2,1005.33,5266.03,1010.95,5272.22Zm0.98-5a7.248,7.248,0,0,0-.68,1.05,5.338,5.338,0,0,0-.32.8c-1.84-2.49-3.9-4.88-5.75-7.3-2.72-3.55-5.356-7.17-8.048-10.75a17.005,17.005,0,0,1,1.831-.09,13.411,13.411,0,0,1,1.417.05C1004.01,5256.53,1007.29,5262.47,1011.93,5267.22Zm15.04,0.7a5.083,5.083,0,0,0-1.05-2.31,4.927,4.927,0,0,0-.88-0.83,0.846,0.846,0,0,0-.32-0.69,248.459,248.459,0,0,1-18.98-18.59,0.5,0.5,0,0,0-.51-0.17c-0.11-1.6-.24-3.19-0.23-4.79,0.12,0.01.23,0.01,0.35,0.02,8.76,13.12,22.37,22.24,32.24,34.5-0.15.01-.29,0.02-0.44,0.02-0.94.06-1.92,0.12-2.9,0.16a36.783,36.783,0,0,0-3.78-3.71C1029.26,5270.38,1028.09,5269.17,1026.97,5267.92Zm-1.47,6.41q0.3-.57.57-1.17a7.061,7.061,0,0,0,1.09,1.48c0.06,0.05.13,0.11,0.19,0.17A16.186,16.186,0,0,1,1025.5,5274.33Zm4.96,0.88c-0.7-.46-1.53-0.72-2.23-1.22a5.644,5.644,0,0,1-1.7-2.02,10.191,10.191,0,0,0,.5-2.01c0.63,0.76,1.28,1.49,1.95,2.21,0.96,1.02,1.92,2.11,2.95,3.09C1031.44,5275.26,1030.95,5275.24,1030.46,5275.21Z" transform="translate(-989 -5227)"/>
</svg>